#!OML:ASF H:\BreakDance\Project 1\Capture day 1\Session 1\Male.ASF
:FULLY-SPECIFIED
:DEGREES
480
root 9.39183 14.7347 -5.96035 533.432 -54.1415 -159.863
lowerback 9.75274 1.92764 2.03382
upperback 5.84264 2.35492 1.55558
thorax 0.623916 1.04555 0.252905
lowerneck -1.58724 4.24853 -0.468289
upperneck -4.31085 5.64068 0.144757
head -1.07355 2.80588 0.0930836
rclavicle -8.3092e-014 7.15625e-015
rhumerus -4.82329 42.2057 -96.3986
rradius 110.526
rwrist -0.0395558
rhand -22.4578 10.9846
rfingers 7.12502
rthumb 3.9667 -18.9582
lclavicle -8.3092e-014 7.15625e-015
lhumerus -6.99305 -11.8575 68.0393
lradius 82.5936
lwrist 8.61278
lhand -37.6906 -45.1933
lfingers 7.12502
lthumb -10.7408 -15.4879
rfemur -35.8764 -13.3634 26.2389
rtibia 67.1188
rfoot -30.8576 5.50985
rtoes -17.0472
lfemur -62.9396 13.5817 -14.6773
ltibia 105.101
lfoot -17.0923 -4.5387
ltoes -23.1844
481
root 9.31651 14.7212 -6.00879 534.286 -53.4075 -160.758
lowerback 10.2948 1.98205 1.78339
upperback 6.03526 2.39042 1.21718
thorax 0.533072 1.05259 0.0272521
lowerneck -1.77282 4.49171 -0.713272
upperneck -3.98323 5.98013 0.448773
head -0.959994 2.978 0.231712
rclavicle -5.88403e-014 -2.22639e-014
rhumerus -7.01404 40.6368 -97.3429
rradius 109.81
rwrist -1.2067
rhand -22.9903 10.4567
rfingers 7.12502
rthumb 3.45243 -19.4951
lclavicle -5.88403e-014 -2.22639e-014
lhumerus -7.50045 -11.979 67.4618
lradius 83.4534
lwrist 9.58421
lhand -37.7922 -45.9931
lfingers 7.12502
lthumb -10.8388 -16.2928
rfemur -37.3048 -14.6352 26.0434
rtibia 69.7982
rfoot -27.9555 6.9059
rtoes -15.9368
lfemur -64.5728 14.4163 -15.2665
ltibia 104.623
lfoot -16.6263 -5.03282
ltoes -22.5814
482
root 9.23687 14.7044 -6.05347 535.228 -52.6562 -161.788
lowerback 10.9095 2.00557 1.46274
upperback 6.22276 2.37266 0.851486
thorax 0.39615 1.02994 -0.185131
lowerneck -1.86099 4.79172 -0.933578
upperneck -3.81441 6.38927 0.568978
head -0.907728 3.18595 0.306214
rclavicle -8.34896e-015 -5.56597e-015
rhumerus -8.96004 39.0848 -98.1055
rradius 108.847
rwrist -2.3596
rhand -23.3639 9.63844
rfingers 7.12502
rthumb 3.09169 -20.3189
lclavicle -8.34896e-015 -5.56597e-015
lhumerus -8.15983 -11.9939 66.8728
lradius 84.1495
lwrist 10.518
lhand -37.7635 -46.3436
lfingers 7.12502
lthumb -10.8111 -16.6419
rfemur -38.9793 -16.0226 25.7397
rtibia 72.6865
rfoot -24.521 8.15434
rtoes -14.433
lfemur -66.0623 15.1365 -15.9079
ltibia 103.854
lfoot -16.0412 -5.73735
ltoes -21.9272
483
root 9.15374 14.6827 -6.09522 536.236 -51.935 -162.863
lowerback 11.5259 1.9784 1.16749
upperback 6.39078 2.28347 0.432298
thorax 0.241837 0.972645 -0.459867
lowerneck -1.84203 5.12274 -1.05558
upperneck -3.81491 6.83324 0.507718
head -0.917017 3.41097 0.30474
rclavicle -2.70347e-014 -2.54444e-014
rhumerus -10.6604 37.4922 -98.7523
rradius 107.669
rwrist -3.38928
rhand -23.5037 8.58096
rfingers 7.12502
rthumb 2.95667 -21.3783
lclavicle -2.70347e-014 -2.54444e-014
lhumerus -8.89108 -11.9235 66.1943
lradius 84.63
lwrist 11.4081
lhand -37.5597 -46.1952
lfingers 7.12502
lthumb -10.6146 -16.4833
rfemur -40.9409 -17.5136 25.4159
rtibia 75.682
rfoot -20.7693 9.17539
rtoes -12.2562
lfemur -67.5001 15.7133 -16.5485
ltibia 102.85
lfoot -15.326 -6.61732
ltoes -21.1788
484
root 9.0661 14.6556 -6.13573 537.335 -51.2592 -163.976
lowerback 12.06 1.90021 0.948491
upperback 6.53587 2.12858 -0.0688393
thorax 0.114188 0.886487 -0.851972
lowerneck -1.70642 5.46597 -1.05854
upperneck -3.97972 7.287 0.301636
head -0.986524 3.64022 0.234107
rclavicle -5.80451e-014 -6.04305e-014
rhumerus -12.1276 35.8065 -99.3205
rradius 106.326
rwrist -4.20858
rhand -23.3997 7.3525
rfingers 7.12502
rthumb 3.05711 -22.6053
lclavicle -5.80451e-014 -6.04305e-014
lhumerus -9.62727 -11.8156 65.3811
lradius 84.8615
lwrist 12.2914
lhand -37.1782 -45.5891
lfingers 7.12502
lthumb -10.2465 -15.8587
rfemur -43.183 -19.0795 25.0966
rtibia 78.6844
rfoot -16.6393 10.5873
rtoes -4.9668
lfemur -68.9179 16.1427 -17.1933
ltibia 101.647
lfoot -14.5449 -7.57687
ltoes -20.2316
485
root 8.97149 14.6242 -6.17711 538.498 -50.6242 -165.109
lowerback 12.4603 1.78076 0.808895
upperback 6.66728 1.92322 -0.624121
thorax 0.0474261 0.778921 -1.33452
lowerneck -1.48716 5.81866 -1.0042
upperneck -4.24789 7.74855 -0.00636013
head -1.09491 3.87396 0.118181
rclavicle 7.15625e-015 -2.06736e-014
rhumerus -13.3992 34.0382 -99.7847
rradius 104.883
rwrist -4.79126
rhand -23.1111 5.99906
rfingers 7.12502
rthumb 3.33584 -23.9546
lclavicle 7.15625e-015 -2.06736e-014
lhumerus -10.3518 -11.6814 64.4861
lradius 84.8266
lwrist 13.1886
lhand -36.6357 -44.6244
lfingers 7.12502
lthumb -9.72317 -14.8689
rfemur -45.6113 -20.7021 24.7948
rtibia 81.6001
rfoot -13.1104 11.1209
rtoes 0.631878
lfemur -70.2662 16.4471 -17.8242
ltibia 100.27
lfoot -13.7891 -8.52923
ltoes -18.5119
486
root 8.87236 14.586 -6.2198 539.678 -49.9912 -166.231
lowerback 12.7678 1.63871 0.725278
upperback 6.78513 1.69115 -1.20167
thorax 0.0159376 0.660086 -1.86598
lowerneck -1.22413 6.18222 -0.959515
upperneck -4.57423 8.22119 -0.371069
head -1.22587 4.11495 -0.0176737
rclavicle 4.85035e-014 -1.00187e-013
rhumerus -14.4697 32.2391 -100.113
rradius 103.393
rwrist -5.16091
rhand -22.7207 4.4795
rfingers 7.12502
rthumb 3.71278 -25.4679
lclavicle 4.85035e-014 -1.00187e-013
lhumerus -11.0658 -11.5064 63.5547
lradius 84.5348
lwrist 14.0766
lhand -35.9623 -43.3876
lfingers 7.12502
lthumb -9.07343 -13.6027
rfemur -48.1435 -22.2954 24.5353
rtibia 84.3861
rfoot -10.5173 11.0303
rtoes 4.42866
lfemur -71.5522 16.6886 -18.4075
ltibia 98.7591
lfoot -13.0747 -9.39771
ltoes -16.4706
487
root 8.77085 14.5384 -6.26413 540.819 -49.3427 -167.295
lowerback 13.0168 1.49363 0.67241
upperback 6.88823 1.45704 -1.75685
thorax -0.00275408 0.540618 -2.39038
lowerneck -0.944725 6.54966 -0.958754
upperneck -4.91921 8.69519 -0.787825
head -1.36414 4.35941 -0.165551
rclavicle -2.78299e-014 -7.95139e-014
rhumerus -15.3555 30.4546 -100.262
rradius 101.899
rwrist -5.37287
rhand -22.3284 2.79338
rfingers 7.12502
rthumb 4.09164 -27.1471
lclavicle -2.78299e-014 -7.95139e-014
lhumerus -11.7886 -11.2975 62.6662
lradius 84.0029
lwrist 14.9495
lhand -35.1789 -41.9816
lfingers 7.12502
lthumb -8.31743 -12.1654
rfemur -50.7142 -23.8148 24.3479
rtibia 87.0268
rfoot -8.92054 10.4742
rtoes 6.86614
lfemur -72.7753 16.915 -18.9055
ltibia 97.1574
lfoot -12.4385 -10.0967
ltoes -14.9233
488
root 8.66928 14.4794 -6.31008 541.87 -48.674 -168.25
lowerback 13.2332 1.35807 0.62946
upperback 6.98364 1.23614 -2.24881
thorax -0.0162434 0.426738 -2.85609
lowerneck -0.695871 6.92166 -0.999766
upperneck -5.2456 9.17012 -1.27544
head -1.48887 4.60768 -0.329028
rclavicle 1.11319e-014 4.77083e-014
rhumerus -16.0852 28.7218 -100.212
rradius 100.457
rwrist -5.47887
rhand -22.0005 0.975422
rfingers 7.12502
rthumb 4.40832 -28.9587
lclavicle 1.11319e-014 4.77083e-014
lhumerus -12.5209 -11.0286 61.8839
lradius 83.2501
lwrist 15.7395
lhand -34.315 -40.4806
lfingers 7.12502
lthumb -7.48359 -10.633
rfemur -53.2709 -25.2239 24.2554
rtibia 89.5149
rfoot -8.13299 9.55751
rtoes 9.03087
lfemur -73.944 17.1658 -19.28
ltibia 95.5032
lfoot -11.8983 -10.57
ltoes -14.446
